<svg width="58" height="57" xmlns="http://www.w3.org/2000/svg" xmlns:xlink="http://www.w3.org/1999/xlink" xml:space="preserve" overflow="hidden"><defs><clipPath id="clip0"><rect x="1006" y="436" width="58" height="57"/></clipPath></defs><g clip-path="url(#clip0)" transform="translate(-1006 -436)"><path d="M-11.7372 132.989C-12.5805 132.611-13.2131 131.953-13.6422 131.008-13.9716 130.283-14.0129 129.642-14.0168 125.208-14.0197 121.955-13.9416 119.988-13.7922 119.547-13.4379 118.503-12.8693 117.809-12.0095 117.37-11.2655 116.99-10.9137 116.972-5.50602 117.027L0.210923 117.085 0.963437 117.66C2.40035 118.756 2.48911 119.226 2.42251 125.391L2.36387 130.819 1.83081 131.624C1.50999 132.109 0.951261 132.597 0.427514 132.85-0.394667 133.248-0.738112 133.271-5.79204 133.264-9.83059 133.258-11.2873 133.19-11.7372 132.989ZM-0.0984244 131.427C0.99928 130.688 1.10497 130.055 1.03507 124.632 0.968053 119.433 0.935438 119.276-0.210911 118.668-0.730598 118.393-1.53581 118.358-6.04384 118.412L-11.2738 118.476-11.8531 119.124-12.4323 119.773-12.4323 125.046C-12.4323 128.392-12.3551 130.462-12.221 130.713-12.1048 130.93-11.725 131.281-11.377 131.494-10.7949 131.849-10.3448 131.88-5.75871 131.88-0.893552 131.881-0.756981 131.87-0.0984244 131.427ZM7.52763 132.941C6.65192 132.478 6.23922 132.068 5.81836 131.244 5.47682 130.574 5.44227 130.014 5.44227 125.149 5.44227 121.847 5.5233 119.577 5.65352 119.233 5.9123 118.548 6.74804 117.642 7.46812 117.266 7.91458 117.033 10.2841 116.985 21.6059 116.985 30.7792 116.985 35.3892 117.055 35.7659 117.198 36.4134 117.444 42.2777 123.18 42.6968 123.977 43.248 125.025 43.0688 125.842 42.0387 126.974 39.2934 129.994 36.6428 132.562 35.9283 132.894 35.1784 133.242 34.3777 133.262 21.6287 133.259 9.68924 133.256 8.05435 133.219 7.52763 132.941ZM35.1935 131.597C36.0682 131.133 41.6369 125.421 41.5588 125.068 41.4822 124.721 36.2234 119.277 35.4319 118.725 34.9719 118.404 33.9658 118.379 21.7678 118.377 7.31957 118.376 7.76535 118.34 7.13379 119.561 6.68306 120.432 6.69202 129.638 7.14452 130.592 7.77053 131.911 7.32328 131.871 21.6882 131.877 32.5653 131.88 34.7437 131.835 35.1935 131.597ZM10.6458 127.87C10.2879 127.512 10.3587 126.956 10.7916 126.724 11.0373 126.593 13.9307 126.519 18.821 126.519 25.5063 126.519 26.5053 126.558 26.7783 126.831 27.1515 127.204 27.1757 127.545 26.8521 127.87 26.5097 128.212 10.9881 128.212 10.6458 127.87ZM10.5944 123.228C10.4032 122.997 10.3882 122.82 10.5399 122.58 10.7281 122.281 11.4207 122.249 17.5789 122.249L24.4092 122.249 24.4092 122.845 24.4092 123.44 17.6334 123.493C11.629 123.539 10.8276 123.509 10.5944 123.228ZM-11.7409 112.737C-12.5486 112.385-13.5563 111.202-13.828 110.286-13.9748 109.792-14.0284 107.781-13.986 104.359L-13.9219 99.1804-13.3755 98.3554C-13.0749 97.9013-12.4493 97.327-11.9852 97.0793-11.1666 96.6424-10.9775 96.6289-5.67968 96.6289 0.343737 96.6289 0.472052 96.6515 1.54051 97.9215 2.41384 98.9589 2.49352 99.6217 2.42642 105.283L2.36388 110.562 1.83081 111.366C1.51001 111.85 0.951239 112.339 0.427518 112.592-0.394663 112.991-0.738109 113.013-5.79204 113.006-9.76235 113-11.2959 112.931-11.7409 112.737ZM-0.0984207 111.17C0.99928 110.431 1.10497 109.797 1.03507 104.374 0.98143 100.212 0.929193 99.5422 0.623287 99.0918 0.0012061 98.1767-0.391432 98.1182-5.90749 98.1182L-11.0817 98.1182-11.757 98.7938-12.4323 99.4686-12.4323 104.758C-12.4323 109.406-12.3912 110.111-12.0942 110.565-11.4677 111.521-10.9376 111.607-5.6594 111.615-0.891909 111.623-0.756876 111.612-0.0984207 111.17ZM7.52763 112.683C6.65192 112.22 6.23922 111.811 5.81836 110.986 5.47673 110.317 5.44227 109.756 5.44227 104.872 5.44227 100.805 5.50766 99.3395 5.7106 98.8538 6.0328 98.0822 7.22688 96.9907 7.97816 96.7806 8.71461 96.5741 34.7817 96.5861 35.5312 96.7933 36.1871 96.9742 42.2118 102.797 42.6968 103.719 42.8519 104.014 42.9789 104.583 42.9789 104.983 42.9789 105.76 43.1637 105.538 38.3235 110.578 35.7668 113.241 37.3199 113.015 21.6156 113.006 9.69367 112.999 8.05412 112.961 7.52763 112.683ZM35.1935 111.339C36.0443 110.888 41.6374 105.163 41.5588 104.824 41.4745 104.46 36.1894 98.9544 35.4565 98.4672 34.974 98.1467 33.9563 98.1204 21.7678 98.1197 7.29458 98.1182 7.76678 98.0792 7.12444 99.3215 6.86127 99.8304 6.82282 100.707 6.87282 105.062L6.93182 110.202 7.42834 110.736C7.7014 111.029 8.10359 111.344 8.3221 111.434 8.54054 111.525 14.5553 111.604 21.6882 111.611 32.5766 111.621 34.7431 111.578 35.1935 111.339ZM10.6458 107.612C10.2879 107.253 10.3587 106.698 10.7916 106.467 11.0373 106.335 13.9307 106.261 18.821 106.261 25.5063 106.261 26.5053 106.3 26.7783 106.573 27.1985 106.993 27.1715 107.395 26.7062 107.645 26.1257 107.955 10.9583 107.924 10.6458 107.612ZM10.5944 102.97C10.4032 102.74 10.3882 102.562 10.5399 102.322 10.7281 102.024 11.4207 101.991 17.5789 101.991L24.4092 101.991 24.4092 102.587 24.4092 103.183 17.6334 103.235C11.629 103.281 10.8276 103.251 10.5944 102.97ZM-11.7372 92.4434C-12.636 91.9757-13.2391 91.3527-13.6458 90.4714-13.971 89.7673-14.0128 89.1158-14.0157 84.7125-14.0176 81.689-13.9331 79.4363-13.7994 78.9529-13.5249 77.9583-12.3734 76.8331-11.3033 76.5126-10.2848 76.2071-1.34034 76.1823-0.262227 76.4818 0.756261 76.7648 1.77485 77.7038 2.16174 78.7172 2.43359 79.4288 2.473 80.3663 2.4229 84.9295L2.36388 90.3033 1.83081 91.108C1.51 91.5929 0.951254 92.0808 0.427518 92.3345-0.393473 92.7316-0.745421 92.7556-5.79204 92.7549-10.2501 92.7541-11.2406 92.7016-11.7372 92.4434ZM-0.42568 91.084C0.925515 90.5195 0.973631 90.2965 0.973631 84.6022 0.973631 80.5105 0.916492 79.4033 0.682748 78.9664 0.12388 77.9215-0.238084 77.86-5.88829 77.86L-11.0817 77.86-11.757 78.5355-12.4323 79.2111-12.4323 84.5009C-12.4323 90.3491-12.3942 90.545-11.1508 91.0862-10.2546 91.4765-1.36086 91.475-0.42568 91.084ZM7.63287 92.4411C6.72515 92.0478 6.27485 91.6222 5.81836 90.7282 5.47673 90.0586 5.44228 89.4986 5.44228 84.6142 5.44228 80.548 5.50766 79.0813 5.7106 78.5956 6.06528 77.7466 7.23419 76.7415 8.1677 76.4818 9.22587 76.1883 34.2558 76.1965 35.3325 76.4908 35.964 76.6634 36.772 77.3458 39.2708 79.8169 40.9999 81.5261 42.5416 83.1662 42.6968 83.4612 42.8519 83.7562 42.9789 84.3275 42.9789 84.7313 42.9789 85.3911 42.7821 85.6681 41.0315 87.4719 39.9605 88.5753 38.5608 90.0361 37.921 90.7176 35.856 92.9178 37.1382 92.7571 21.7149 92.7481 10.2393 92.7414 8.22339 92.6971 7.63287 92.4411ZM35.0907 91.09C35.7992 90.7852 41.5887 85.0286 41.5887 84.6292 41.5887 84.2794 36.0516 78.4792 35.3921 78.1377 34.9485 77.908 32.5663 77.86 21.6196 77.86 8.75972 77.86 8.36774 77.8712 7.83276 78.2525 6.86898 78.9386 6.80811 79.3575 6.87242 84.8634L6.93182 89.9497 7.50535 90.548C7.82083 90.8775 8.26768 91.1838 8.49835 91.2288 8.7291 91.2746 14.663 91.3234 21.6847 91.3384 32.1703 91.3609 34.5658 91.3167 35.0907 91.09ZM10.755 87.3773C10.2928 87.1086 10.3129 86.4653 10.7916 86.2086 11.0373 86.0772 13.9307 86.0029 18.821 86.0029 25.5063 86.0029 26.5053 86.0427 26.7783 86.3152 27.1985 86.7355 27.1715 87.1371 26.7062 87.3863 26.1864 87.6648 11.2336 87.6565 10.755 87.3773ZM10.5923 82.7098C10.4028 82.4809 10.3885 82.3045 10.5399 82.0643 10.7281 81.7655 11.4207 81.7333 17.5789 81.7333L24.4092 81.7333 24.4762 82.2069C24.5131 82.4681 24.4237 82.7571 24.2776 82.8495 24.1315 82.9425 21.0513 83.0191 17.4326 83.0214 11.6694 83.0244 10.8209 82.9853 10.5923 82.7098Z" fill="#FFFFFF" transform="matrix(1.01754 0 0 1 1020.26 359.734)"/></g></svg>