<svg width="62" height="52" xmlns="http://www.w3.org/2000/svg" xmlns:xlink="http://www.w3.org/1999/xlink" xml:space="preserve" overflow="hidden"><defs><clipPath id="clip0"><rect x="609" y="146" width="62" height="52"/></clipPath></defs><g clip-path="url(#clip0)" transform="translate(-609 -146)"><path d="M-130.743 91.6409C-131.52 91.3026-132.568 90.2379-132.895 89.4543-133.039 89.108-133.158 88.3559-133.158 87.7833-133.158 86.4417-132.56 85.2913-131.443 84.4814-130.672 83.9227-130.475 83.8714-129.104 83.8714-127.827 83.8714-127.502 83.9432-126.892 84.3562-125.757 85.1251-125.149 86.1927-125.057 87.576-124.936 89.3928-125.872 90.9533-127.487 91.6278-128.325 91.9778-129.954 91.9844-130.743 91.6409ZM-128.213 89.6689C-127.621 89.3884-126.958 88.4233-126.958 87.8433-126.958 87.7159-127.095 87.3219-127.264 86.9675-127.637 86.1803-128.678 85.634-129.471 85.8083-130.186 85.965-130.968 86.7464-131.124 87.4611-131.298 88.2497-130.72 89.376-129.976 89.6997-129.198 90.0387-128.984 90.035-128.213 89.6689ZM-118.566 91.5106C-119.909 90.8449-120.758 89.4324-120.758 87.858-120.758 86.687-120.371 85.7431-119.559 84.931-118.741 84.1123-117.902 83.7747-116.689 83.7747-114.354 83.7747-112.62 85.5147-112.62 87.858-112.62 90.9116-115.814 92.8726-118.566 91.5106ZM-115.813 89.6689C-114.529 89.0604-114.252 87.4267-115.262 86.4168-116.295 85.3836-117.905 85.6831-118.543 87.0276-118.84 87.6537-118.847 87.8155-118.607 88.4943-118.418 89.0238-118.129 89.3665-117.66 89.6162-116.838 90.0534-116.635 90.0592-115.813 89.6689ZM-105.942 91.6409C-106.722 91.3012-107.639 90.3646-108.059 89.4792-108.306 88.9593-108.378 88.4365-108.321 87.576-108.229 86.1927-107.621 85.1251-106.486 84.3562-105.876 83.9432-105.551 83.8714-104.274 83.8714-102.903 83.8714-102.706 83.9227-101.935 84.4814-100.818 85.2913-100.22 86.4417-100.22 87.7833-100.22 88.3559-100.338 89.108-100.483 89.4543-100.827 90.2782-101.834 91.2719-102.687 91.6278-103.524 91.9778-105.154 91.9844-105.942 91.6409ZM-103.413 89.6689C-102.821 89.3884-102.158 88.4233-102.158 87.8433-102.158 87.7159-102.295 87.3219-102.463 86.9675-102.837 86.1803-103.878 85.634-104.671 85.8083-105.387 85.965-106.167 86.7464-106.325 87.4611-106.495 88.2344-105.953 89.2881-105.196 89.6623-104.419 90.0453-104.208 90.046-103.413 89.6696ZM-134.391 81.4461C-135.319 81.1649-136.357 80.3272-136.853 79.4609L-137.323 78.6407-137.323 61.0091-137.323 43.3779-136.839 42.5146C-136.572 42.0398-135.976 41.3859-135.514 41.0615L-134.674 40.4716-116.689 40.4716-98.7038 40.4716-97.8632 41.0615C-97.4011 41.3859-96.805 42.0398-96.5392 42.5146L-96.0544 43.3779-96.0544 61.0091-96.0544 78.6407-96.5927 79.5553C-96.9412 80.1492-97.4523 80.6596-98.0455 81.0089L-98.9609 81.5464-116.398 81.5808C-125.989 81.5991-134.086 81.5384-134.391 81.4461ZM-98.9352 79.1687C-98.7075 78.9849-98.4241 78.6436-98.3055 78.4108-98.1531 78.1135-98.0887 74.5399-98.0887 66.3501L-98.0887 54.7123-116.689 54.7123-135.289 54.7123-135.289 66.3501C-135.289 74.5399-135.225 78.1135-135.073 78.4108-134.953 78.6436-134.67 78.9849-134.443 79.1687-134.058 79.4806-132.83 79.5033-116.689 79.5033-100.548 79.5033-99.3197 79.4806-98.9352 79.1687ZM-129.964 77.2772C-130.777 76.8759-131.062 76.3311-131.17 74.9698-131.341 72.8214-131.106 72.3869-128.15 69.3805-126.695 67.9001-125.269 66.5661-124.981 66.4162-124.693 66.2662-124.138 66.1435-123.746 66.1435-123.119 66.1435-122.848 66.3263-121.435 67.7062L-119.833 69.269-116.687 65.7203C-112.595 61.1069-112.595 61.106-111.665 61.106-111.249 61.106-110.767 61.1601-110.595 61.2263-110.25 61.3587-103.222 69.1912-102.627 70.1066-102.306 70.6-102.255 71.0432-102.255 73.3207-102.255 76.2857-102.404 76.7902-103.426 77.2757-104.359 77.718-129.068 77.7195-129.964 77.2779ZM-104.289 73.3185-104.289 71.193-107.169 67.9417C-108.753 66.1535-110.388 64.3194-110.802 63.8659L-111.555 63.0414-114.945 66.9007C-116.925 69.1537-118.609 70.8972-118.993 71.0897-120.003 71.596-120.79 71.2605-122.399 69.6373-123.142 68.8879-123.845 68.2748-123.959 68.2748-124.074 68.2748-125.275 69.3939-126.628 70.7618L-129.089 73.2489-129.089 74.3459-129.089 75.4436-116.689 75.4436-104.289 75.4436ZM-128.581 64.9417C-129.633 64.6553-130.717 63.5128-130.998 62.3962-131.887 58.8684-127.587 56.4078-125.02 58.9748-122.406 61.589-124.991 65.9203-128.581 64.9417ZM-126.465 62.568C-125.503 61.607-126.184 59.9435-127.539 59.9435-127.917 59.9435-128.314 60.1193-128.613 60.4191-128.913 60.7189-129.089 61.1161-129.089 61.4935-129.089 61.871-128.913 62.2682-128.613 62.568-128.314 62.8677-127.917 63.0436-127.539 63.0436-127.162 63.0436-126.764 62.8677-126.465 62.568ZM-98.0887 48.4058C-98.0887 43.5048-98.1817 43.0778-99.3548 42.5877-100.338 42.1769-133.04 42.1769-134.023 42.5877-135.196 43.0778-135.289 43.5048-135.289 48.4058L-135.289 52.7748-116.689 52.7748-98.0887 52.7748ZM-129.398 50.2854C-131.755 49.183-131.629 45.6568-129.198 44.7286-127.133 43.94-125.02 45.3637-125.02 47.5435-125.02 49.7886-127.346 51.245-129.398 50.2854ZM-127.231 48.0279C-126.936 47.5792-126.936 47.5079-127.231 47.0591-127.957 45.9507-129.481 46.8194-128.93 48.0279-128.766 48.3878-128.561 48.5123-128.129 48.5123-127.723 48.5123-127.453 48.3663-127.231 48.0279ZM-121.542 50.2461C-121.817 49.9722-121.901 49.7164-121.814 49.4227-121.569 48.5992-121.224 48.5123-118.202 48.5123-115.591 48.5123-115.298 48.5472-114.945 48.8998-114.732 49.1129-114.558 49.418-114.558 49.5779-114.558 49.7378-114.732 50.0429-114.945 50.2561-115.298 50.6091-115.591 50.6435-118.239 50.6435-120.911 50.6435-121.177 50.6115-121.542 50.2461ZM-121.379 46.3326C-121.912 45.9137-121.982 45.2799-121.542 44.841-121.165 44.4633-120.924 44.4436-116.689 44.4436-112.454 44.4436-112.213 44.4633-111.835 44.841-111.561 45.1149-111.477 45.3707-111.564 45.6643-111.821 46.5315-112.065 46.5748-116.689 46.5748-119.901 46.5748-121.153 46.5101-121.379 46.3326ZM-142.297 67.7472C-142.652 67.457-143.965 66.2702-145.214 65.1096-146.974 63.475-147.513 62.8571-147.604 62.367-147.76 61.5414-147.361 60.7851-146.296 59.8846-145.837 59.4957-144.676 58.4367-143.717 57.5314-142.481 56.3648-141.829 55.8837-141.479 55.88-140.846 55.8733-140.52 56.2051-140.52 56.857-140.52 57.2726-141.014 57.8267-143.033 59.6761L-145.546 61.9779-144.631 62.8393C-144.129 63.3131-142.997 64.3782-142.119 65.2062-140.388 66.8362-140.146 67.4096-140.951 67.9732-141.515 68.3685-141.545 68.3636-142.297 67.7472ZM-92.5373 67.9205C-93.1487 67.2445-92.9305 66.78-91.2594 65.2062-90.3799 64.3782-89.2493 63.3131-88.7462 62.8393L-87.8323 61.9779-90.3448 59.6685C-92.3439 57.8312-92.858 57.2551-92.858 56.8495-92.858 56.2053-92.5307 55.8738-91.8987 55.8781-91.537 55.8806-90.7051 56.5313-88.7887 58.3116-87.3505 59.648-86.0565 60.9641-85.9137 61.2361-85.3799 62.2517-85.7241 62.8438-88.1641 65.1096-91.8379 68.5219-91.9361 68.5848-92.5373 67.9205Z" fill="#FFFFFF" transform="matrix(1 0 0 1.00897 756.637 105.165)"/></g></svg>