<svg width="52" height="53" xmlns="http://www.w3.org/2000/svg" xmlns:xlink="http://www.w3.org/1999/xlink" xml:space="preserve" overflow="hidden"><defs><clipPath id="clip0"><rect x="219" y="438" width="52" height="53"/></clipPath></defs><g clip-path="url(#clip0)" transform="translate(-219 -438)"><path d="M-126.315 219.723C-126.716 219.323-126.729 218.891-126.356 218.443-126.098 218.134-125.877 218.097-124.04 218.059L-122.009 218.017-121.964 215.398-121.92 212.779-123.152 212.699C-124.728 212.599-125.536 212.092-126.195 210.791L-126.645 209.904-126.602 190.886-126.559 171.867-126.107 170.947C-125.587 169.888-124.651 168.975-123.572 168.476L-122.821 168.129-100.64 168.129-78.4588 168.129-77.5388 168.581C-76.4794 169.101-75.5673 170.038-75.0686 171.116L-74.721 171.867-74.678 190.886-74.635 209.904-75.084 210.791C-75.7442 212.092-76.5518 212.599-78.1278 212.699L-79.3604 212.779-79.3156 215.398-79.2714 218.017-77.2403 218.059C-75.4027 218.097-75.1816 218.134-74.9243 218.443-74.5509 218.891-74.5644 219.323-74.9648 219.723-75.2872 220.046-75.5065 220.048-100.64 220.048-125.774 220.048-125.993 220.045-126.315 219.723ZM-115.466 213.426-115.422 208.836-117.7 208.836-119.978 208.836-119.978 213.358C-119.978 215.846-119.927 217.932-119.865 217.994-119.803 218.056-118.797 218.087-117.63 218.062L-115.509 218.017ZM-110.592 207.141C-110.554 197.305-110.525 196.236-110.282 195.969-110.038 195.699-109.687 195.673-106.328 195.673-102.967 195.673-102.617 195.699-102.372 195.969-102.13 196.236-102.101 197.305-102.063 207.141L-102.021 218.017-100.64 218.017-99.2591 218.017-99.2161 211.446C-99.1786 205.617-99.1436 204.842-98.9065 204.581-98.6639 204.312-98.3089 204.286-94.9525 204.286-91.596 204.286-91.2416 204.312-90.9984 204.581-90.7614 204.842-90.7263 205.617-90.6889 211.446L-90.6465 218.017-89.2652 218.017-87.8839 218.017-87.841 212.339C-87.7943 206.119-87.7869 206.073-86.8276 206.073-85.8682 206.073-85.8609 206.119-85.8142 212.339L-85.7712 218.017-83.5774 218.017-81.3835 218.017-81.3418 207.089-81.3 196.16-83.5761 196.16-85.8523 196.16-85.8523 198.382C-85.8523 200.221-85.8989 200.655-86.1213 200.901-86.4566 201.271-87.1132 201.284-87.5056 200.929-87.7728 200.687-87.8023 200.364-87.7998 197.72-87.7986 196.103-87.7439 194.699-87.6782 194.6-87.3625 194.128-86.7698 194.048-83.5774 194.048-80.3855 194.048-79.7922 194.128-79.4771 194.6-79.4114 194.699-79.3561 198.381-79.3549 202.782L-79.3525 210.786-78.5424 210.786C-77.8772 210.786-77.6377 210.701-77.2022 210.311L-76.6716 209.837-76.6716 193.615-76.6716 177.392-100.64 177.392-124.609 177.392-124.609 193.615-124.609 209.837-124.078 210.311C-123.642 210.701-123.403 210.786-122.738 210.786L-121.928 210.786-121.928 209.133C-121.928 206.743-122.195 206.886-117.731 206.886-114.554 206.886-114.033 206.921-113.775 207.155-113.499 207.405-113.478 207.793-113.478 212.653-113.478 215.528-113.426 217.933-113.363 217.996-113.3 218.059-112.66 218.089-111.941 218.064L-110.634 218.017ZM-87.5474 204.518C-88.0928 203.972-87.6045 202.823-86.8276 202.823-86.3811 202.823-85.8523 203.39-85.8523 203.868-85.8523 204.395-86.2595 204.773-86.8276 204.773-87.0831 204.773-87.4067 204.658-87.5474 204.518ZM-96.7594 200.744C-98.3433 199.917-99.0508 198.105-98.4631 196.38L-98.1972 195.6-101.629 192.165-105.061 188.731-105.897 188.976C-106.581 189.177-106.897 189.188-107.627 189.035L-108.519 188.849-111.549 191.876-114.58 194.904-114.337 195.487C-113.714 196.977-114.511 198.961-116.058 199.769-119.314 201.47-122.73 197.937-120.881 194.781-119.995 193.269-118.176 192.674-116.318 193.288-116.051 193.376-115.451 192.856-113.023 190.425L-110.056 187.454-110.304 186.749C-110.807 185.324-110.51 184.086-109.4 182.971-107.907 181.472-105.886 181.481-104.373 182.994-103.305 184.061-102.982 185.415-103.479 186.736L-103.693 187.305-100.205 190.811-96.7176 194.317-95.8289 194.091C-95.0538 193.893-94.8327 193.896-94.0932 194.115L-93.2463 194.364-89.8892 191.014-86.5328 187.663-86.8607 187.033C-87.3502 186.095-87.2249 184.466-86.5899 183.517-85.8885 182.468-84.8819 181.942-83.5774 181.942-81.5506 181.942-80.154 183.262-80.0324 185.294-79.9593 186.518-80.2234 187.257-81.0187 188.052-81.8405 188.873-82.4 189.083-83.7788 189.088L-85.0366 189.092-88.4269 192.478-91.8165 195.865-91.604 196.459C-91.1643 197.691-91.4216 198.935-92.3226 199.934-93.5196 201.262-95.1859 201.566-96.7594 200.744ZM-93.8556 198.676C-92.9902 197.68-93.7204 195.998-95.0188 195.998-95.8486 195.998-96.6427 196.733-96.6427 197.5-96.6427 198.16-96.2257 198.875-95.7147 199.092-95.1373 199.336-94.2591 199.14-93.8556 198.676ZM-117.153 198.118C-116.592 197.905-116.208 197.262-116.208 196.536-116.208 195.729-116.951 195.023-117.799 195.023-119.368 195.023-119.932 197.27-118.551 198.02-118.026 198.305-117.704 198.327-117.153 198.118ZM-105.781 186.632C-105.265 186.117-105.198 185.078-105.641 184.501-106.212 183.76-107.706 183.762-108.182 184.506-108.93 185.674-108.233 187.061-106.896 187.061-106.371 187.061-106.109 186.96-105.781 186.632ZM-82.5492 186.728C-81.6464 186.018-81.8675 184.619-82.9681 184.081-83.5589 183.793-83.5958 183.793-84.1866 184.081-85.7724 184.856-85.3216 187.061-83.5774 187.061-83.2132 187.061-82.8029 186.928-82.5492 186.728ZM-121.659 187.413C-122.014 187.021-122 186.364-121.63 186.03-121.378 185.801-120.907 185.76-118.487 185.76-115.936 185.76-115.613 185.791-115.371 186.058-115.016 186.45-115.03 187.107-115.4 187.441-115.653 187.671-116.122 187.711-118.544 187.711-121.094 187.711-121.418 187.68-121.659 187.413ZM-121.659 182.539C-122.014 182.146-122 181.49-121.63 181.154-121.378 180.926-120.907 180.886-118.487 180.886-115.936 180.886-115.613 180.917-115.371 181.182-115.016 181.575-115.03 182.231-115.4 182.567-115.653 182.795-116.122 182.836-118.544 182.836-121.094 182.836-121.418 182.804-121.659 182.539ZM-113.062 182.475C-113.402 181.988-113.38 181.601-112.99 181.211-112.355 180.576-111.365 180.989-111.365 181.889-111.365 182.761-112.57 183.177-113.062 182.475ZM-104.092 207.82-104.05 197.623-106.326 197.623-108.602 197.623-108.602 207.752C-108.602 213.323-108.552 217.932-108.489 217.994-108.427 218.056-107.422 218.087-106.255 218.062L-104.134 218.017ZM-92.7163 212.126-92.6733 206.236-94.9506 206.236-97.2274 206.236-97.2274 212.058C-97.2274 215.261-97.177 217.932-97.115 217.994-97.0523 218.056-96.0469 218.087-94.8806 218.062L-92.7586 218.017ZM-76.5899 174.393C-76.5899 172.709-76.8743 171.787-77.6266 171.035-78.1382 170.523-78.4994 170.322-79.1572 170.182-80.3769 169.922-120.903 169.922-122.123 170.182-122.781 170.322-123.142 170.523-123.653 171.035-124.406 171.787-124.69 172.709-124.69 174.393L-124.69 175.361-100.64 175.361-76.5899 175.361ZM-120.754 173.483C-121.484 172.971-121.035 171.786-120.111 171.786-119.239 171.786-118.824 172.991-119.526 173.483-119.725 173.622-120.001 173.736-120.14 173.736-120.279 173.736-120.555 173.622-120.754 173.483ZM-116.691 173.483C-117.421 172.971-116.973 171.786-116.049 171.786-115.177 171.786-114.761 172.991-115.463 173.483-115.662 173.622-115.939 173.736-116.078 173.736-116.216 173.736-116.493 173.622-116.691 173.483ZM-112.629 173.483C-113.359 172.971-112.91 171.786-111.987 171.786-111.114 171.786-110.699 172.991-111.401 173.483-111.6 173.622-111.876 173.736-112.015 173.736-112.154 173.736-112.43 173.622-112.629 173.483ZM-104.666 173.483C-105.095 173.182-105.151 172.42-104.772 172.041-104.545 171.813-103.217 171.786-92.61 171.786-81.281 171.786-80.6895 171.8-80.434 172.083-80.0502 172.507-80.0944 173.18-80.5262 173.483-80.8449 173.706-82.2618 173.736-92.5965 173.736-102.931 173.736-104.347 173.706-104.666 173.483Z" fill="#FFFFFF" transform="matrix(1 0 0 1.01923 345.645 266.638)"/></g></svg>