<svg width="58" height="60" xmlns="http://www.w3.org/2000/svg" xmlns:xlink="http://www.w3.org/1999/xlink" xml:space="preserve" overflow="hidden"><defs><clipPath id="clip0"><rect x="611" y="434" width="58" height="60"/></clipPath></defs><g clip-path="url(#clip0)" transform="translate(-611 -434)"><path d="M-3.6124 313.75-13.1166 309.935-13.1786 283.914C-13.23 262.346-13.1848 257.871-12.9141 257.767-12.7345 257.697-8.41447 259.291-3.31407 261.307 1.78633 263.324 6.13041 264.974 6.33946 264.974 6.54851 264.974 9.71352 263.78 13.3729 262.321 17.0323 260.862 21.2062 259.208 22.6482 258.646L25.2701 257.624 34.9549 261.481 44.6397 265.34 44.7018 291.361C44.7534 313.015 44.7086 317.404 44.4351 317.509 44.2543 317.578 39.9495 315.986 34.8688 313.969 29.7882 311.953 25.4458 310.303 25.219 310.302 24.8923 310.301 16.2068 313.673 7.62613 317.133 6.97159 317.396 6.31361 317.602 6.16394 317.589 6.01427 317.575 1.61493 315.848-3.6124 313.75ZM5.4665 290.995 5.40442 266.328-3.00315 262.981C-7.62731 261.139-11.5483 259.628-11.7165 259.622-11.9602 259.614-12.0096 264.617-11.9602 284.262L-11.8981 308.912-11.0452 309.224C-10.5761 309.397-6.73782 310.913-2.51576 312.594 1.7063 314.276 5.24349 315.653 5.34466 315.657 5.44582 315.661 5.50065 304.562 5.4665 290.995ZM-3.24684 306.899C-6.53067 305.588-9.42845 304.357-9.68626 304.161-10.2406 303.742-10.0595 302.986-9.40782 302.999-9.16909 303.004-6.17731 304.128-2.75945 305.497 3.03014 307.816 3.45484 308.028 3.45484 308.593 3.45484 308.95 3.30521 309.215 3.0893 309.239 2.88824 309.261 0.0369802 308.208-3.24684 306.899ZM-3.33023 301.155C-6.79395 299.781-9.74198 298.542-9.88152 298.403-10.2504 298.034-9.92067 297.385-9.36407 297.385-9.10122 297.385-6.65775 298.268-3.93415 299.348 4.07776 302.523 3.57669 302.286 3.57669 302.888 3.57669 303.183 3.4396 303.477 3.27206 303.54 3.10452 303.602 0.133491 302.529-3.33023 301.155ZM-3.73312 295.352C-9.89561 292.875-10.5551 292.486-9.74364 291.813-9.46631 291.582-8.09601 292.038-2.97055 294.067 2.87999 296.382 3.45484 296.661 3.45484 297.181 3.45484 297.572 3.30195 297.766 2.96744 297.801 2.69937 297.827-0.315878 296.726-3.73312 295.352ZM-3.36706 289.812C-6.71701 288.475-9.6192 287.218-9.81631 287.021-10.1319 286.705-10.1261 286.614-9.76823 286.256-9.38866 285.876-8.93697 286.018-2.95344 288.4 2.98104 290.762 3.45484 290.994 3.45484 291.545 3.45484 291.887 3.29993 292.162 3.08929 292.192 2.88824 292.221-0.0171237 291.15-3.36707 289.812ZM-3.6124 281.914-7.99895 280.142-8.06661 276.692C-8.13188 273.365-8.15382 273.235-8.68444 273.033-9.36121 272.775-10.279 271.175-9.94065 270.843-9.60787 270.515-3.54866 267.898-3.12359 267.898-2.71228 267.898 3.10027 274.924 3.44774 275.841 3.64816 276.37 3.59227 276.537 3.0822 276.93 2.75101 277.185 2.34612 277.346 2.18243 277.287 1.95978 277.206 1.86769 277.99 1.81688 280.398 1.75315 283.418 1.71888 283.619 1.26156 283.651 0.993494 283.671-1.19978 282.889-3.6124 281.914ZM0.41235 278.925C0.416084 276.06 0.502233 275.613 1.08672 275.425 1.27917 275.364 0.497579 274.219-0.947248 272.445-3.61288 269.171-3.20717 269.302-6.30894 270.716L-8.24265 271.597-7.57248 271.949-6.90231 272.3-6.90231 275.568C-6.90231 277.91-6.81623 278.891-6.59845 279.033-6.12363 279.341-0.23698 281.742 0.103997 281.767 0.331467 281.783 0.409564 281.064 0.41235 278.925ZM14.8172 312.731C18.8885 311.118 22.713 309.602 23.3162 309.362L24.4128 308.925 24.4749 284.268C24.5104 270.196 24.445 259.612 24.3227 259.612 24.1521 259.612 16.8525 262.466 8.20695 265.913L7.1103 266.35 7.04822 291.007C7.01279 305.079 7.07816 315.663 7.20049 315.663 7.31839 315.663 10.7459 314.344 14.8172 312.731ZM10.0608 307.479C9.97943 307.267 9.91284 303.815 9.91284 299.808L9.91284 292.523 10.4611 292.173C11.4786 291.523 20.4841 288.103 20.9885 288.175 21.4788 288.245 21.4897 288.393 21.5528 295.829 21.6028 301.714 21.5482 303.466 21.3091 303.651 20.8358 304.017 11.0633 307.866 10.6091 307.865 10.3888 307.865 10.1421 307.691 10.0608 307.479ZM16.5536 304.086 20.1481 302.659 20.1481 296.245C20.1481 292.717 20.1207 289.831 20.0872 289.831 20.0537 289.832 18.1072 290.596 15.7616 291.529L11.4969 293.226 11.4319 299.697 11.367 306.168 12.163 305.84C12.6009 305.66 14.5765 304.871 16.5536 304.086ZM9.1005 286.257C9.01114 286.167 8.93803 285.903 8.93803 285.671 8.93803 285.344 10.4127 284.662 15.4115 282.678 18.9718 281.266 22.0482 280.172 22.2479 280.25 22.4502 280.327 22.5782 280.617 22.5371 280.905 22.4754 281.338 21.4398 281.833 16.249 283.909 10.1597 286.346 9.42946 286.586 9.1005 286.257ZM9.02924 280.457C8.95379 280.26 8.93395 279.973 8.98515 279.82 9.10016 279.475 21.5913 274.443 22.0977 274.538 22.3003 274.576 22.4632 274.863 22.4632 275.183 22.4632 275.709 21.9157 275.977 16.1271 278.28 12.6422 279.666 9.65043 280.803 9.47874 280.807 9.30696 280.811 9.1047 280.653 9.02924 280.457ZM9.19351 274.858C9.02301 274.652 8.94172 274.333 9.01289 274.147 9.16661 273.746 21.4928 268.815 22.0671 268.924 22.285 268.966 22.4969 269.235 22.538 269.522 22.6054 269.993 21.9934 270.288 16.3237 272.529 12.8647 273.896 9.91514 275.063 9.76906 275.123 9.62307 275.182 9.36398 275.063 9.19351 274.858ZM43.4833 291.022 43.4213 266.379 34.8918 262.996C30.2006 261.135 26.2796 259.612 26.1785 259.612 26.0773 259.612 26.0225 270.711 26.0567 284.277L26.1187 308.942 34.5263 312.288C39.1505 314.129 43.0714 315.641 43.2396 315.649 43.4833 315.66 43.5328 310.66 43.4833 291.022ZM34.5439 296.174C32.8781 295.51 31.3663 294.817 31.1841 294.635 30.8149 294.265 31.0035 293.486 31.4621 293.486 31.6247 293.486 33.2304 294.072 35.0306 294.789 37.9573 295.953 38.3036 296.153 38.3036 296.674 38.3036 297.002 38.1438 297.284 37.9381 297.319 37.737 297.353 36.2096 296.838 34.5439 296.174ZM34.528 289.812C32.8536 289.144 31.3223 288.437 31.125 288.24 30.8093 287.924 30.8154 287.832 31.1761 287.472 31.5598 287.088 31.7981 287.147 34.9447 288.411 37.9428 289.615 38.3036 289.822 38.3036 290.341 38.3036 290.671 38.1459 290.943 37.9381 290.974 37.737 291.002 36.2025 290.48 34.528 289.812ZM34.5263 283.468C31.2286 282.14 30.7702 281.847 31.0099 281.223 31.2388 280.626 31.637 280.713 35.1356 282.122 37.98 283.268 38.3036 283.459 38.3036 283.991 38.3036 284.332 38.1478 284.608 37.9381 284.639 37.737 284.67 36.2017 284.143 34.5263 283.468Z" fill="#FFFFFF" transform="matrix(1 0 0 1.00084 624.197 176.159)"/></g></svg>