<svg width="60" height="48" xmlns="http://www.w3.org/2000/svg" xmlns:xlink="http://www.w3.org/1999/xlink" xml:space="preserve" overflow="hidden"><defs><clipPath id="clip0"><rect x="1005" y="148" width="60" height="48"/></clipPath></defs><g clip-path="url(#clip0)" transform="translate(-1005 -148)"><path d="M-145.604 149.884C-145.83 149.794-146.07 149.501-146.138 149.233-146.205 148.965-146.159 147.148-146.034 145.194L-145.808 141.643-143.947 138.4C-142.924 136.616-142.064 135.115-142.036 135.064-142.008 135.012-142.581 134.968-143.311 134.965-144.785 134.959-145.745 134.575-146.608 133.644-147.485 132.699-147.777 131.922-147.782 130.523-147.787 129.297-147.716 129.077-146.508 126.538-144.889 123.139-143.855 120.689-142.558 117.184-141.992 115.657-141.342 114.111-141.113 113.747-140.468 112.725-139.523 111.998-137.84 111.226-136.38 110.557-133.739 109.224-130.981 107.762-129.414 106.932-128.325 106.756-127.013 107.121L-126.021 107.398-124.991 105.579C-123.401 102.771-122.451 102.026-120.451 102.018-118.594 102.011-117.002 103.175-116.443 104.948-116.004 106.338-116.204 107.256-117.401 109.351-117.957 110.325-118.413 111.197-118.413 111.289-118.413 111.381-114.964 112.889-110.749 114.642L-103.086 117.828-96.3187 117.828C-89.7533 117.828-89.5369 117.839-89.0634 118.212L-88.5751 118.597-88.5751 132.534C-88.5751 144.849-88.6088 146.519-88.8637 146.884-89.1502 147.293-89.1803 147.296-94.5955 147.296-99.297 147.296-100.079 147.256-100.33 147.004-100.569 146.765-100.622 146.213-100.622 143.926-100.622 141.348-100.645 141.149-100.946 141.266-101.124 141.335-102.229 141.651-103.401 141.968-105.393 142.507-105.745 142.545-108.776 142.554-111.339 142.563-112.291 142.494-113.317 142.227-115.127 141.756-118.101 140.274-119.479 139.155L-120.638 138.214-127.356 138.216-134.073 138.218-136.22 141.969-138.366 145.72-141.409 147.778C-143.082 148.91-144.618 149.884-144.822 149.942-145.026 150-145.378 149.974-145.604 149.884ZM-141.633 145.186C-140.336 144.347-139.726 143.739-139.726 143.285-139.726 143.079-142.493 141.365-142.827 141.365-143.262 141.365-143.575 142.497-143.69 144.494L-143.812 146.603-143.391 146.327C-143.159 146.175-142.368 145.661-141.633 145.186ZM-90.8439 132.608-90.7963 120.237-94.5969 120.237-98.3976 120.237-98.3976 132.658-98.3976 145.079-94.6446 145.029-90.8915 144.978ZM-95.5145 142.25C-95.6728 142.024-95.8031 141.69-95.8031 141.509-95.8031 141.036-95.1377 140.438-94.6117 140.438-94.0268 140.438-93.3452 141.281-93.5014 141.811-93.7669 142.709-95.0039 142.979-95.5145 142.25ZM-137.61 139.747-136.78 138.314-137.85 138.021C-138.438 137.86-139.233 137.535-139.614 137.299-140.4 136.814-140.399 136.813-141.185 138.224L-141.758 139.253-140.14 140.199C-139.249 140.72-138.503 141.153-138.481 141.162-138.459 141.171-138.067 140.535-137.61 139.747ZM-105.974 140.166C-104.351 139.881-101.666 139.131-101.006 138.777-100.624 138.574-100.622 138.492-100.622 129.405L-100.622 120.237-101.953 120.237C-103.259 120.237-103.442 120.172-111.266 116.917-115.657 115.09-119.361 113.568-119.498 113.534-119.653 113.496-120.382 114.563-121.419 116.345-125.345 123.091-126.92 125.876-126.851 125.946-126.811 125.986-126.104 125.874-125.281 125.696-123.846 125.385-123.769 125.386-123.415 125.706-123.185 125.915-123.046 126.276-123.046 126.67-123.046 127.234-123.13 127.338-123.835 127.649-125.064 128.193-127.368 128.392-132.452 128.392-136.267 128.392-137.271 128.446-137.83 128.679-139.385 129.328-140.173 130.638-140.062 132.386-139.95 134.144-138.876 135.426-137.187 135.818-136.799 135.908-132.688 135.983-128.05 135.986L-119.617 135.991-118.784 136.739C-115.389 139.782-110.796 141.011-105.974 140.166ZM-120.719 124.273C-120.878 124.047-121.008 123.713-121.008 123.532-121.008 123.059-120.343 122.461-119.816 122.461-119.231 122.461-118.55 123.304-118.707 123.834-118.971 124.732-120.208 125.002-120.719 124.273ZM-142.452 131.635C-142.183 129.024-140.173 126.71-137.736 126.203L-137.038 126.059-136.284 123.565C-135.279 120.246-135.148 120.027-133.652 119.137L-132.398 118.393-129.953 114.159C-128.608 111.83-127.454 109.785-127.388 109.614-127.287 109.35-127.401 109.303-128.15 109.303-128.841 109.303-129.356 109.479-130.533 110.119-132.48 111.177-135.012 112.451-136.76 113.252-138.942 114.252-139.158 114.528-140.357 117.853-141.4 120.742-142.933 124.401-144.377 127.44-145.172 129.116-145.469 129.952-145.464 130.505-145.452 131.903-144.719 132.636-143.319 132.648L-142.558 132.654ZM-125.826 119.372C-123.736 115.742-122.003 112.676-121.974 112.559-121.906 112.282-125.075 110.513-125.267 110.721-125.347 110.808-127.309 114.173-129.627 118.199-131.945 122.225-133.925 125.624-134.027 125.751-134.173 125.934-133.728 125.981-131.919 125.977L-129.625 125.971ZM-119.628 108.596C-118.392 106.414-118.297 105.684-119.14 104.841-119.836 104.144-120.938 104.089-121.638 104.716-122.239 105.254-124.035 108.392-123.842 108.568-123.698 108.698-120.776 110.415-120.697 110.415-120.676 110.415-120.194 109.596-119.628 108.596Z" fill="#FFFFFF" transform="matrix(1.01489 0 0 1 1154.98 45.9824)"/></g></svg>