<svg width="56" height="47" xmlns="http://www.w3.org/2000/svg" xmlns:xlink="http://www.w3.org/1999/xlink" xml:space="preserve" overflow="hidden"><defs><clipPath id="clip0"><rect x="217" y="149" width="56" height="47"/></clipPath></defs><g clip-path="url(#clip0)" transform="translate(-217 -149)"><path d="M-108.974 17.9674C-109.17 17.8855-110.426 16.7069-111.768 15.3484-114.983 12.0914-114.989 12.4815-111.687 9.15164-109.364 6.80869-109.117 6.61056-108.522 6.61056-107.728 6.61056-107.289 7.04733-107.289 7.83893-107.289 8.31171-107.502 8.6389-108.442 9.61276-109.076 10.2695-109.595 10.8607-109.595 10.9265-109.595 10.9924-101.674 11.0259-91.9923 11.001L-74.3894 10.9558-74.3894-5.44983-74.3894-21.8555-76.2449-21.9064C-78.394-21.9655-78.7345-22.1406-78.7345-23.1857-78.7345-24.3379-78.4838-24.4272-75.2454-24.4272-72.7189-24.4272-72.3724-24.3914-72.1109-24.1028-71.8421-23.8054-71.8173-22.2528-71.8173-5.4044L-71.8173 12.9697-72.2852 13.3373C-72.7511 13.7039-72.8054 13.7049-91.2134 13.7049L-109.674 13.7049-108.493 14.9021C-107.029 16.3853-106.873 16.8632-107.612 17.6023-108.171 18.1607-108.381 18.2169-108.974 17.9674ZM-127.215 13.2032C-127.484 12.9058-127.508 11.3541-127.508-5.48065-127.508-23.0418-127.494-23.8529-127.184-24.1337-126.886-24.4029-125.321-24.4272-108.295-24.4272-98.0849-24.4272-89.7306-24.481-89.7306-24.5468-89.7306-24.6126-90.2897-25.2425-90.9721-25.9467-91.6565-26.6526-92.2142-27.3841-92.2142-27.5768-92.2142-28.2347-91.5405-28.8611-90.8333-28.8611-90.2394-28.8611-89.986-28.6592-87.6539-26.327-84.3204-22.9939-84.3217-23.3974-87.6392-20.0513-89.7923-17.8796-90.2374-17.5102-90.7033-17.5102-91.5405-17.5102-92.0365-17.949-92.0365-18.6903-92.0365-19.2225-91.8609-19.5005-90.8836-20.5124-90.2494-21.1692-89.7306-21.7604-89.7306-21.8262-89.7306-21.892-97.6519-21.9255-107.334-21.9007L-124.936-21.8555-124.936-5.44983-124.936 10.9558-123.081 11.0068C-120.932 11.0658-120.591 11.2409-120.591 12.286-120.591 13.4382-120.842 13.5276-124.08 13.5276-126.608 13.5276-126.953 13.4917-127.215 13.2032ZM-101.348 3.24853C-104.441 2.57673-107.039 0.313032-108.025-2.56751-108.6-4.25098-108.598-6.65487-108.019-8.34784-107.202-10.7372-104.95-12.9894-102.561-13.8062-100.259-14.5931-97.3503-14.3248-95.2662-13.1333-93.5059-12.1269-91.9581-10.2524-91.3012-8.33216-90.7301-6.66126-90.7281-4.24339-91.2972-2.58005-92.1673-0.037529-94.2084 2.01171-96.751 2.89414-97.9281 3.30276-100.268 3.48313-101.348 3.24853ZM-96.8985 0.054009C-95.6014-0.584483-94.6555-1.56874-94.0154-2.94552-93.6313-3.7712-93.5508-4.20167-93.5481-5.45356-93.5448-6.80527-93.6051-7.08882-94.1219-8.13917-94.7963-9.50825-95.7596-10.4469-97.1585-11.0975-98.5884-11.7624-100.737-11.7624-102.167-11.0975-103.566-10.4469-104.53-9.50825-105.204-8.13917-105.719-7.09204-105.782-6.80112-105.782-5.45356-105.782-4.19619-105.705-3.77703-105.321-2.95872-103.782 0.321712-100.11 1.63511-96.8985 0.054009Z" fill="#FFFFFF" transform="matrix(1.00556 0 0 1 345.217 177.861)"/></g></svg>