<svg width="104" height="103" xmlns="http://www.w3.org/2000/svg" xmlns:xlink="http://www.w3.org/1999/xlink" xml:space="preserve" overflow="hidden"><g transform="translate(-1249 -1994)"><path d="M1255.31 2081.24C1254.43 2080.82 1253.09 2079.81 1252.35 2078.99 1249.9 2076.28 1250 2077.68 1250 2045.5 1250 2013.32 1249.9 2014.72 1252.35 2012.01 1253.09 2011.19 1254.43 2010.18 1255.31 2009.76L1256.92 2009 1301.51 2009 1346.11 2009 1347.72 2009.76C1348.6 2010.18 1349.94 2011.2 1350.68 2012.02 1353.16 2014.75 1353.06 2013.28 1352.96 2046.18 1352.88 2073.42 1352.83 2075.41 1352.29 2076.63 1351.49 2078.44 1349.62 2080.31 1347.72 2081.23L1346.11 2082 1301.51 2082 1256.92 2082ZM1336.29 2069.56C1332.66 2065.95 1326.76 2060.05 1323.18 2056.47L1316.68 2049.94 1314.01 2052.54C1309.13 2057.28 1306.31 2058.66 1301.51 2058.66 1296.72 2058.66 1293.9 2057.28 1289.02 2052.54L1286.35 2049.94 1279.84 2056.47C1276.27 2060.05 1270.37 2065.95 1266.74 2069.56L1260.14 2076.13 1301.51 2076.13 1342.89 2076.13ZM1269.08 2032.38 1256.12 2019.26 1256.12 2045.5 1256.12 2071.74 1269.08 2058.62 1282.03 2045.5ZM1346.91 2045.42 1346.91 2019.26 1333.96 2032.38 1321 2045.5 1333.87 2058.54C1340.95 2065.71 1346.79 2071.58 1346.83 2071.58 1346.88 2071.58 1346.91 2059.81 1346.91 2045.42ZM1305.58 2051.55C1306.62 2050.96 1313.17 2044.64 1325.02 2032.77L1342.89 2014.87 1301.51 2014.87 1260.14 2014.87 1277.69 2032.48C1287.34 2042.16 1295.77 2050.46 1296.43 2050.92 1299.28 2052.93 1302.71 2053.16 1305.58 2051.55Z" fill="#404040" fill-rule="evenodd"/></g></svg>