<svg width="105" height="106" xmlns="http://www.w3.org/2000/svg" xmlns:xlink="http://www.w3.org/1999/xlink" xml:space="preserve" overflow="hidden"><g transform="translate(-1250 -2200)"><path d="M1254.74 2304.31C1253.59 2304.09 1250.99 2301.31 1250.73 2300.02 1250.38 2298.23 1250.48 2206.03 1250.84 2204.73 1251.23 2203.29 1253.26 2201.26 1254.72 2200.84 1255.33 2200.66 1257 2200.52 1258.42 2200.52 1261.41 2200.52 1262.45 2201 1262.44 2202.4 1262.43 2204.04 1262.06 2204.24 1258.75 2204.43 1256.42 2204.56 1255.54 2204.74 1255.11 2205.17 1254.58 2205.71 1254.55 2208.4 1254.55 2252.53 1254.55 2297.01 1254.57 2299.35 1255.12 2299.9 1255.67 2300.45 1257.64 2300.49 1292.03 2300.56L1328.37 2300.64 1328.93 2301.33C1329.67 2302.23 1329.65 2303.09 1328.85 2303.89 1328.21 2304.54 1327.81 2304.54 1291.86 2304.5 1271.87 2304.48 1255.17 2304.39 1254.74 2304.31ZM1334.4 2304.04C1333.6 2303.47 1333.41 2301.7 1334.07 2301.03 1334.74 2300.36 1336.49 2300.56 1337.05 2301.37 1337.73 2302.34 1337.68 2303.11 1336.91 2303.89 1336.14 2304.68 1335.37 2304.72 1334.4 2304.04ZM1342.47 2304.06C1341.66 2303.47 1341.46 2301.61 1342.15 2301.04 1342.37 2300.86 1343.89 2300.66 1345.52 2300.59 1347.84 2300.51 1348.62 2300.35 1349.07 2299.9 1349.61 2299.35 1349.64 2297 1349.64 2252.53 1349.64 2208.05 1349.61 2205.71 1349.07 2205.16 1348.52 2204.61 1346.55 2204.58 1312.16 2204.5L1275.82 2204.42 1275.26 2203.73C1274.52 2202.83 1274.54 2201.97 1275.34 2201.16 1275.99 2200.51 1276.27 2200.51 1312.84 2200.59L1349.69 2200.68 1350.85 2201.57C1351.49 2202.06 1352.35 2202.94 1352.76 2203.52L1353.51 2204.58 1353.51 2252.56 1353.51 2300.53 1352.63 2301.7C1350.92 2303.96 1350.02 2304.36 1346.43 2304.48 1343.83 2304.57 1343.05 2304.49 1342.47 2304.06ZM1266.52 2289.32C1266.04 2288.78 1265.99 2286.56 1265.99 2264.18 1265.99 2240.81 1266.02 2239.6 1266.58 2239.09 1267.1 2238.62 1268.19 2238.55 1275.39 2238.55 1282.95 2238.55 1283.66 2238.6 1284.15 2239.15 1284.64 2239.69 1284.69 2241.9 1284.69 2264.29 1284.69 2287.66 1284.66 2288.87 1284.1 2289.38 1283.58 2289.85 1282.48 2289.92 1275.28 2289.92 1267.72 2289.92 1267.01 2289.87 1266.52 2289.32ZM1280.82 2264.23 1280.82 2242.45 1275.34 2242.45 1269.86 2242.45 1269.86 2264.23 1269.86 2286.01 1275.34 2286.01 1280.82 2286.01ZM1290.03 2289.2C1289.58 2288.55 1289.52 2285.71 1289.52 2264.16 1289.52 2240.29 1289.53 2239.84 1290.17 2239.2 1290.78 2238.59 1291.24 2238.55 1298.66 2238.55 1305.85 2238.55 1306.55 2238.6 1307.04 2239.15 1307.33 2239.47 1307.57 2240.13 1307.57 2240.61 1307.57 2241.09 1307.66 2241.48 1307.77 2241.48 1307.87 2241.48 1308.78 2240.97 1309.78 2240.36 1312.61 2238.62 1315.34 2237.82 1318.99 2237.65 1322.92 2237.46 1324.94 2237.87 1328.53 2239.6 1333.74 2242.1 1337.78 2247.32 1338.99 2253.12 1339.4 2255.08 1339.49 2258.42 1339.49 2272.17 1339.49 2287.91 1339.46 2288.87 1338.9 2289.38 1338.38 2289.85 1337.28 2289.92 1330.06 2289.92 1322.99 2289.92 1321.73 2289.84 1321.3 2289.4 1320.85 2288.96 1320.79 2287.18 1320.78 2274.86 1320.78 2266.39 1320.64 2260.24 1320.44 2259.36 1319.58 2255.57 1315.68 2253.5 1312.17 2254.98 1310.64 2255.63 1309.91 2256.31 1309.15 2257.8 1308.58 2258.93 1308.54 2259.93 1308.54 2273.57 1308.53 2284.65 1308.44 2288.32 1308.12 2288.94L1307.72 2289.75 1299.13 2289.84C1290.55 2289.93 1290.53 2289.92 1290.03 2289.2ZM1304.42 2272.12C1304.51 2258.31 1304.52 2258.21 1305.27 2256.52 1305.7 2255.57 1306.72 2254.18 1307.61 2253.34 1309.76 2251.31 1311.67 2250.54 1314.57 2250.53 1318.54 2250.51 1321.66 2252.47 1323.61 2256.2L1324.5 2257.89 1324.59 2271.95 1324.69 2286.01 1329.99 2286.01 1335.3 2286.01 1335.3 2270.28C1335.3 2255.56 1335.26 2254.42 1334.66 2252.48 1333.09 2247.34 1328.89 2243.39 1323.52 2241.98 1318.21 2240.58 1312.33 2242.43 1308.42 2246.71 1306.55 2248.76 1305.89 2249.11 1304.89 2248.58 1303.82 2248.01 1303.72 2247.69 1303.71 2244.97L1303.71 2242.45 1298.71 2242.45 1293.71 2242.45 1293.71 2264.23 1293.71 2286.01 1299.02 2286.01 1304.32 2286.01ZM1271.79 2235.76C1269.14 2234.8 1267.01 2232.82 1265.71 2230.1 1264.5 2227.56 1264.5 2223.89 1265.7 2221.32 1266.7 2219.19 1268.76 2217.07 1270.8 2216.06 1272.94 2215 1277.75 2214.99 1279.86 2216.04 1281.9 2217.05 1283.98 2219.2 1284.97 2221.32 1286.15 2223.87 1286.15 2227.55 1284.97 2230.1 1283.98 2232.22 1281.89 2234.39 1279.88 2235.37 1277.95 2236.31 1273.86 2236.51 1271.79 2235.76ZM1279.03 2231.16C1282.84 2228.46 1282.79 2222.93 1278.94 2220.2 1277.71 2219.33 1277.27 2219.21 1275.34 2219.21 1273.41 2219.21 1272.96 2219.33 1271.74 2220.2 1269.8 2221.57 1268.9 2223.29 1268.9 2225.64 1268.89 2228.67 1270.63 2231.2 1273.3 2232.06 1274.94 2232.59 1277.59 2232.17 1279.03 2231.16ZM1267.07 2203.58C1265.9 2201.78 1267.89 2199.78 1269.67 2200.96 1270.73 2201.65 1270.85 2203.56 1269.88 2204.08 1268.78 2204.68 1267.65 2204.48 1267.07 2203.58Z" stroke="#404040" stroke-width="1.14583" stroke-miterlimit="8" fill="#404040" fill-rule="evenodd"/></g></svg>