<svg width="83" height="105" xmlns="http://www.w3.org/2000/svg" xmlns:xlink="http://www.w3.org/1999/xlink" xml:space="preserve" overflow="hidden"><g transform="translate(-2015 -2200)"><path d="M2024.14 2303.37C2020.65 2302.12 2017.83 2299.49 2016.14 2295.91L2015.13 2293.75 2015.04 2252.52C2014.95 2211.39 2014.96 2211.29 2015.64 2209.24 2016.81 2205.68 2019.46 2202.76 2023.07 2201.03L2024.85 2200.18 2047.47 2200.09 2070.08 2200 2071.18 2201.07C2072.08 2201.94 2087.44 2218.15 2095.11 2226.32L2097 2228.33 2097 2260.41C2097 2288.82 2096.94 2292.69 2096.48 2294.26 2095.26 2298.44 2091.9 2301.93 2087.7 2303.39 2085.94 2304 2084.76 2304.02 2055.85 2304 2027.48 2303.97 2025.73 2303.94 2024.14 2303.37ZM2086.4 2298.47C2088.47 2297.7 2090.34 2295.95 2091.29 2293.91 2091.97 2292.45 2091.98 2292.31 2091.98 2262.13L2091.98 2231.81 2083.06 2231.64C2074.51 2231.49 2074.08 2231.45 2072.73 2230.72 2070.58 2229.57 2068.58 2227.53 2067.58 2225.49L2066.68 2223.65 2066.58 2214.27 2066.48 2204.89 2046.31 2204.98C2027.12 2205.07 2026.09 2205.1 2024.89 2205.7 2023.17 2206.56 2021.51 2208.29 2020.68 2210.1 2019.99 2211.59 2019.99 2211.6 2019.9 2251.35 2019.81 2296.31 2019.65 2293.35 2022.31 2296.22 2023.27 2297.24 2024.38 2298.03 2025.46 2298.45 2027.07 2299.07 2028.04 2299.1 2055.89 2299.11 2083.95 2299.13 2084.7 2299.11 2086.4 2298.47ZM2033.84 2286.08C2032.77 2285.08 2032.6 2283.91 2033.36 2282.88L2034 2282.01 2055.91 2281.93 2077.82 2281.85 2078.49 2282.71C2079.4 2283.87 2079.34 2284.98 2078.31 2285.94L2077.45 2286.74 2056 2286.74C2034.89 2286.74 2034.53 2286.73 2033.84 2286.08ZM2047.08 2265C2042.78 2260.37 2039.17 2256.23 2039.06 2255.8 2038.77 2254.64 2039.34 2253.38 2040.39 2252.88 2041.17 2252.5 2041.45 2252.5 2042.21 2252.88 2042.7 2253.12 2045.34 2255.74 2048.06 2258.7 2050.79 2261.66 2053.14 2264.13 2053.29 2264.19 2053.43 2264.25 2053.55 2258 2053.55 2250.3 2053.55 2236.62 2053.57 2236.27 2054.22 2235.44 2055.1 2234.31 2056.71 2234.26 2057.71 2235.33 2058.4 2236.07 2058.41 2236.23 2058.49 2250.27L2058.58 2264.46 2063.74 2258.89C2066.58 2255.83 2069.25 2253.13 2069.67 2252.9 2071.18 2252.06 2073.01 2253.26 2073.01 2255.09 2073.01 2256.18 2072.41 2256.91 2065.14 2264.74 2057.89 2272.54 2057.17 2273.22 2056.08 2273.31 2054.92 2273.41 2054.77 2273.28 2047.08 2265ZM2083.34 2221.15C2080.42 2218.07 2076.53 2214 2074.7 2212.11L2071.37 2208.66 2071.47 2215.5C2071.55 2221.24 2071.66 2222.52 2072.13 2223.4 2072.76 2224.58 2074.58 2226.16 2075.68 2226.47 2076.08 2226.59 2079.16 2226.7 2082.53 2226.72L2088.65 2226.75Z" fill="#404040" fill-rule="evenodd"/></g></svg>