<svg width="104" height="72" xmlns="http://www.w3.org/2000/svg" xmlns:xlink="http://www.w3.org/1999/xlink" xml:space="preserve" overflow="hidden"><defs><clipPath id="clip0"><rect x="119" y="2216" width="104" height="72"/></clipPath></defs><g clip-path="url(#clip0)" transform="translate(-119 -2216)"><path d="M125.311 2287.25C124.426 2286.83 123.095 2285.84 122.355 2285.03 119.9 2282.36 119.999 2283.74 119.999 2252 119.999 2220.27 119.9 2221.64 122.355 2218.97 123.095 2218.16 124.426 2217.17 125.311 2216.75L126.921 2216 171.515 2216 216.109 2216 217.719 2216.75C218.603 2217.17 219.937 2218.17 220.681 2218.98 223.157 2221.67 223.06 2220.23 222.959 2252.67 222.876 2279.54 222.832 2281.5 222.291 2282.7 221.486 2284.49 219.624 2286.34 217.719 2287.24L216.109 2288 171.515 2288 126.921 2288ZM206.288 2275.73C202.658 2272.17 196.761 2266.36 193.184 2262.82L186.681 2256.38 184.009 2258.94C179.13 2263.62 176.314 2264.98 171.515 2264.98 166.715 2264.98 163.899 2263.62 159.022 2258.94L156.348 2256.38 149.845 2262.82C146.268 2266.36 140.371 2272.17 136.741 2275.73L130.141 2282.21 171.515 2282.21 212.889 2282.21ZM139.075 2239.06 126.116 2226.12 126.116 2252 126.116 2277.88 139.075 2264.94 152.034 2252ZM216.913 2251.92 216.913 2226.12 203.955 2239.06 190.996 2252 203.873 2264.86C210.955 2271.93 216.787 2277.72 216.832 2277.72 216.877 2277.72 216.913 2266.11 216.913 2251.92ZM175.583 2257.96C176.622 2257.39 183.172 2251.15 195.02 2239.44L212.889 2221.79 171.515 2221.79 130.141 2221.79 147.689 2239.16C157.34 2248.7 165.773 2256.89 166.428 2257.35 169.278 2259.33 172.707 2259.56 175.583 2257.96Z" fill="#404040" fill-rule="evenodd"/></g></svg>