<svg width="3290" height="29" xmlns="http://www.w3.org/2000/svg" xmlns:xlink="http://www.w3.org/1999/xlink" xml:space="preserve" overflow="hidden"><defs><clipPath id="clip0"><rect x="320" y="497" width="3290" height="29"/></clipPath><linearGradient x1="320" y1="511.5" x2="3610" y2="511.5" gradientUnits="userSpaceOnUse" spreadMethod="reflect" id="fill1"><stop offset="0" stop-color="#A547FF"/><stop offset="0.483" stop-color="#BBC1FF"/><stop offset="1" stop-color="#FB91A6"/></linearGradient><linearGradient x1="320" y1="511.5" x2="3610" y2="511.5" gradientUnits="userSpaceOnUse" spreadMethod="reflect" id="fill2"><stop offset="0" stop-color="#A547FF"/><stop offset="0.483" stop-color="#BBC1FF"/><stop offset="1" stop-color="#FB91A6"/></linearGradient><linearGradient x1="320" y1="511.5" x2="3610" y2="511.5" gradientUnits="userSpaceOnUse" spreadMethod="reflect" id="fill3"><stop offset="0" stop-color="#A547FF"/><stop offset="0.483" stop-color="#BBC1FF"/><stop offset="1" stop-color="#FB91A6"/></linearGradient><linearGradient x1="320" y1="511.5" x2="3610" y2="511.5" gradientUnits="userSpaceOnUse" spreadMethod="reflect" id="fill4"><stop offset="0" stop-color="#A547FF"/><stop offset="0.483" stop-color="#BBC1FF"/><stop offset="1" stop-color="#FB91A6"/></linearGradient></defs><g clip-path="url(#clip0)" transform="translate(-320 -497)"><rect x="320" y="503" width="3139" height="17.0002" fill="url(#fill1)"/><path d="M3480 511.5C3480 503.492 3486.49 497 3494.5 497 3502.51 497 3509 503.492 3509 511.5 3509 519.508 3502.51 526 3494.5 526 3486.49 526 3480 519.508 3480 511.5Z" fill="url(#fill2)" fill-rule="evenodd"/><path d="M3530 511.5C3530 503.492 3536.49 497 3544.5 497 3552.51 497 3559 503.492 3559 511.5 3559 519.508 3552.51 526 3544.5 526 3536.49 526 3530 519.508 3530 511.5Z" fill="url(#fill3)" fill-rule="evenodd"/><path d="M3580 511.5C3580 503.492 3586.72 497 3595 497 3603.28 497 3610 503.492 3610 511.5 3610 519.508 3603.28 526 3595 526 3586.72 526 3580 519.508 3580 511.5Z" fill="url(#fill4)" fill-rule="evenodd"/></g></svg>